<svg width="430" height="932" viewBox="0 0 430 932" fill="none" xmlns="http://www.w3.org/2000/svg">
<g clipPath="url(#clip0_644_2771)">
<rect width="1136" height="975" transform="matrix(-1 0 0 -1 801 932)" fill="white"/>
<path d="M-4 932H437L437 -43H-4L-4 932Z" fill="url(#paint0_linear_644_2771)"/>
<path d="M-362.447 545.813C-241.405 358.766 -70.208 277.903 151.144 303.226C372.495 328.548 543.692 247.686 664.734 60.6385L965.005 706.547L-62.1764 1191.72L-362.447 545.813Z" fill="white" fill-opacity="0.08"/>
<path d="M-362.811 480.111C-162.264 407.343 25.45 432.056 200.33 554.25C375.21 676.444 562.923 701.157 763.471 628.388L691.281 1176.72L-435 1028.44L-362.811 480.111Z" fill="white" fill-opacity="0.08"/>
<path d="M325.86 163.492C326.22 165.556 327.684 168.148 330.468 170.236C331.836 171.268 333.228 171.94 334.596 172.228V173.236C331.884 173.884 329.22 175.708 327.516 178.18C326.652 179.428 326.1 180.652 325.86 181.924H324.852C324.444 179.5 322.572 176.812 320.028 175.012C318.78 174.124 317.484 173.524 316.164 173.236V172.228C318.828 171.676 321.924 169.3 323.46 166.876C324.228 165.652 324.684 164.524 324.852 163.492H325.86Z" fill="white" fill-opacity="0.6"/>
<path d="M87.8601 444.492C88.2201 446.556 89.6841 449.148 92.4681 451.236C93.8361 452.268 95.2281 452.94 96.5961 453.228V454.236C93.8841 454.884 91.2201 456.708 89.5161 459.18C88.6521 460.428 88.1001 461.652 87.8601 462.924H86.8521C86.4441 460.5 84.5721 457.812 82.0281 456.012C80.7801 455.124 79.4841 454.524 78.1641 454.236V453.228C80.8281 452.676 83.9241 450.3 85.4601 447.876C86.2281 446.652 86.6841 445.524 86.8521 444.492H87.8601Z" fill="white" fill-opacity="0.6"/>
<path d="M271.86 715.492C272.22 717.556 273.684 720.148 276.468 722.236C277.836 723.268 279.228 723.94 280.596 724.228V725.236C277.884 725.884 275.22 727.708 273.516 730.18C272.652 731.428 272.1 732.652 271.86 733.924H270.852C270.444 731.5 268.572 728.812 266.028 727.012C264.78 726.124 263.484 725.524 262.164 725.236V724.228C264.828 723.676 267.924 721.3 269.46 718.876C270.228 717.652 270.684 716.524 270.852 715.492H271.86Z" fill="white" fill-opacity="0.6"/>
<path d="M251.9 271.515C253.287 271.515 254.52 271.802 255.6 272.375C256.667 272.962 257.507 273.775 258.12 274.815C258.72 275.868 259.02 277.082 259.02 278.455C259.02 279.482 258.847 280.415 258.5 281.255C258.153 282.108 257.667 282.842 257.04 283.455C256.4 284.082 255.647 284.562 254.78 284.895C253.9 285.228 252.94 285.395 251.9 285.395C251.527 285.395 251.173 285.375 250.84 285.335C250.493 285.295 250.16 285.228 249.84 285.135V284.475C251.013 284.475 252.04 284.222 252.92 283.715C253.787 283.208 254.46 282.502 254.94 281.595C255.42 280.702 255.66 279.655 255.66 278.455C255.66 277.268 255.42 276.222 254.94 275.315C254.46 274.408 253.787 273.702 252.92 273.195C252.04 272.688 251.013 272.435 249.84 272.435V271.775C250.16 271.682 250.493 271.615 250.84 271.575C251.173 271.535 251.527 271.515 251.9 271.515ZM251.92 272.115C252.84 272.328 253.647 272.728 254.34 273.315C255.033 273.915 255.573 274.655 255.96 275.535C256.347 276.428 256.54 277.402 256.54 278.455C256.54 279.508 256.347 280.475 255.96 281.355C255.573 282.235 255.033 282.975 254.34 283.575C253.647 284.188 252.84 284.595 251.92 284.795C252.8 284.795 253.62 284.628 254.38 284.295C255.14 283.962 255.8 283.502 256.36 282.915C256.92 282.342 257.36 281.668 257.68 280.895C257.987 280.135 258.14 279.322 258.14 278.455C258.14 277.575 257.987 276.748 257.68 275.975C257.36 275.215 256.92 274.542 256.36 273.955C255.8 273.382 255.14 272.928 254.38 272.595C253.62 272.275 252.8 272.115 251.92 272.115Z" fill="white" fill-opacity="0.5"/>
<path d="M501 481.5C303.333 738.167 105.667 738.167 -92 481.5C105.667 224.833 303.333 224.833 501 481.5Z" stroke="white" stroke-opacity="0.1"/>
</g>
<defs>
<linearGradient id="paint0_linear_644_2771" x1="447.233" y1="901.27" x2="-72754.3" y2="-32172.1" gradientUnits="userSpaceOnUse">
<stop stop-color="#6348EB"/>
<stop offset="1" stop-color="#CC01FF"/>
</linearGradient>
<clipPath id="clip0_644_2771">
<rect width="1136" height="975" fill="white" transform="matrix(-1 0 0 -1 801 932)"/>
</clipPath>
</defs>
</svg>
